<?xml version="1.0" encoding="UTF-8" standalone="no"?>
<svg
   xmlns:dc="http://purl.org/dc/elements/1.1/"
   xmlns:cc="http://creativecommons.org/ns#"
   xmlns:rdf="http://www.w3.org/1999/02/22-rdf-syntax-ns#"
   xmlns:svg="http://www.w3.org/2000/svg"
   xmlns="http://www.w3.org/2000/svg"
   xmlns:sodipodi="http://sodipodi.sourceforge.net/DTD/sodipodi-0.dtd"
   xmlns:inkscape="http://www.inkscape.org/namespaces/inkscape"
   width="182mm"
   height="87mm"
   viewBox="0 0 182 87"
   version="1.1"
   id="svg8"
   inkscape:version="1.0.1 (3bc2e813f5, 2020-09-07)"
   sodipodi:docname="pulsed_laser.svg"
   inkscape:export-filename="/home/ljp/Nextcloud/Sync_Hugo/these_Hugo/pulsed_laser.png"
   inkscape:export-xdpi="120"
   inkscape:export-ydpi="120">
  <defs
     id="defs2">
    <inkscape:perspective
       sodipodi:type="inkscape:persp3d"
       inkscape:vp_x="0 : -23.976296 : 1"
       inkscape:vp_y="0 : 999.99993 : 0"
       inkscape:vp_z="556.29902 : -23.976296 : 1"
       inkscape:persp3d-origin="278.1495 : -85.984186 : 1"
       id="perspective87" />
    <style
       type="text/css"
       id="style6">
   
    .str3 {stroke:#1F1A17;stroke-width:14}
    .str0 {stroke:#1F1A17;stroke-width:28}
    .str1 {stroke:#131516;stroke-width:28;stroke-linejoin:bevel}
    .str2 {stroke:#DA2724;stroke-width:28;stroke-linejoin:bevel}
    .fil1 {fill:none}
    .fil0 {fill:#1F1A17}
    .fil2 {fill:#131516}
   
  </style>
  </defs>
  <sodipodi:namedview
     id="base"
     pagecolor="#ffffff"
     bordercolor="#666666"
     borderopacity="1.0"
     inkscape:pageopacity="0.0"
     inkscape:pageshadow="2"
     inkscape:zoom="0.98994949"
     inkscape:cx="306.15181"
     inkscape:cy="164.20168"
     inkscape:document-units="mm"
     inkscape:current-layer="layer1"
     inkscape:document-rotation="0"
     showgrid="false"
     inkscape:window-width="1920"
     inkscape:window-height="1024"
     inkscape:window-x="0"
     inkscape:window-y="28"
     inkscape:window-maximized="1" />
  <metadata
     id="metadata5">
    <rdf:RDF>
      <cc:Work
         rdf:about="">
        <dc:format>image/svg+xml</dc:format>
        <dc:type
           rdf:resource="http://purl.org/dc/dcmitype/StillImage" />
        <dc:title></dc:title>
      </cc:Work>
    </rdf:RDF>
  </metadata>
  <g
     inkscape:label="Calque 1"
     inkscape:groupmode="layer"
     id="layer1">
    <g
       id="g1053"
       style="stroke-width:1;stroke-miterlimit:4;stroke-dasharray:none"
       transform="translate(-22.941198,-97.355031)">
      <path
         class="fil0"
         d="M 191.29487,177.91701 H 51.869179 v 0.71109 H 191.29487 Z"
         id="path11"
         style="fill-rule:evenodd;stroke-width:1;stroke-miterlimit:4;stroke-dasharray:none;image-rendering:optimizeQuality;shape-rendering:geometricPrecision;text-rendering:geometricPrecision" />
      <path
         class="fil0"
         d="m 191.01551,176.44402 3.35231,1.82854 -3.35231,1.85393 v -3.68247 l 3.35231,1.82854 z"
         id="path13"
         style="fill-rule:evenodd;stroke-width:1;stroke-miterlimit:4;stroke-dasharray:none;image-rendering:optimizeQuality;shape-rendering:geometricPrecision;text-rendering:geometricPrecision" />
      <path
         class="fil0"
         d="m 51.539027,113.74803 v 64.88007 h 0.6857 v -64.88007 z"
         id="path17"
         style="fill-rule:evenodd;stroke-width:0.819826;stroke-miterlimit:4;stroke-dasharray:none;image-rendering:optimizeQuality;shape-rendering:geometricPrecision;text-rendering:geometricPrecision" />
      <path
         class="fil0"
         d="m 50.040645,114.15153 1.85393,-3.35231 1.828534,3.35231 h -3.682464 l 1.85393,-3.35231 z"
         id="path19"
         style="fill-rule:evenodd;stroke-width:1;stroke-miterlimit:4;stroke-dasharray:none;image-rendering:optimizeQuality;shape-rendering:geometricPrecision;text-rendering:geometricPrecision" />
      <path
         class="fil1 str0"
         d="M 53.875486,117.508 H 49.888267"
         id="path21"
         style="fill-rule:evenodd;stroke-width:1;stroke-miterlimit:4;stroke-dasharray:none;image-rendering:optimizeQuality;shape-rendering:geometricPrecision;text-rendering:geometricPrecision" />
      <path
         class="fil0"
         d="m 72.694145,110.78998 -2.615819,1.70155 2.615819,1.70156 v -3.40311 l -1.320608,1.70155 z"
         id="path29"
         style="fill-rule:evenodd;stroke-width:1;stroke-miterlimit:4;stroke-dasharray:none;image-rendering:optimizeQuality;shape-rendering:geometricPrecision;text-rendering:geometricPrecision" />
      <path
         class="fil0"
         d="M 113.15045,112.13599 H 72.59256 v 0.71109 h 40.55789 z"
         id="path33"
         style="fill-rule:evenodd;stroke-width:1;stroke-miterlimit:4;stroke-dasharray:none;image-rendering:optimizeQuality;shape-rendering:geometricPrecision;text-rendering:geometricPrecision" />
      <path
         class="fil0"
         d="m 113.07426,110.78998 2.61582,1.70155 -2.61582,1.70156 v -3.40311 l 1.29521,1.70155 z"
         id="path35"
         style="fill-rule:evenodd;stroke-width:1;stroke-miterlimit:4;stroke-dasharray:none;image-rendering:optimizeQuality;shape-rendering:geometricPrecision;text-rendering:geometricPrecision" />
      <path
         style="fill:#1f1a17;fill-rule:evenodd;stroke-width:1;stroke-miterlimit:4;stroke-dasharray:none;image-rendering:optimizeQuality;shape-rendering:geometricPrecision;text-rendering:geometricPrecision"
         id="path54"
         d="m 64.821292,145.31833 h -2.945971 v 0.7111 h 2.945971 z"
         class="fil0" />
      <path
         style="fill:#1f1a17;fill-rule:evenodd;stroke-width:1;stroke-miterlimit:4;stroke-dasharray:none;image-rendering:optimizeQuality;shape-rendering:geometricPrecision;text-rendering:geometricPrecision"
         id="path56"
         d="m 64.516536,143.81995 3.352312,1.85393 -3.352312,1.85393 v -3.70786 l 3.352312,1.85393 z"
         class="fil0" />
      <path
         class="fil1 str1"
         d="m 52.021557,177.0916 v 0 h 0.126981 l 0.152378,-0.0178 h 0.126981 0.126982 l 0.126981,-0.0178 h 0.152378 0.126982 0.126981 l 0.126982,-0.0178 h 0.126981 l 0.126982,-0.0178 h 0.126981 l 0.152378,-0.0178 h 0.126981 l 0.126982,-0.0178 0.152378,-0.0178 h 0.126981 0.126982 l 0.126981,-0.0178 h 0.152378 l 0.126982,-0.0178 0.126981,-0.0178 h 0.126982 l 0.152377,-0.0178 0.126982,-0.0178 h 0.126981 l 0.152378,-0.0178 0.126982,-0.0178 0.126981,-0.0178 0.126982,-0.0178 0.126981,-0.0178 h 0.126982 l 0.126981,-0.0178 0.152378,-0.0178 0.126981,-0.0178 0.126982,-0.0178 0.126981,-0.0178 h 0.152378 l 0.126982,-0.0356 0.126981,-0.0178 0.152378,-0.0178 0.126982,-0.0178 0.126981,-0.0178 0.126982,-0.0356 0.152377,-0.0178 0.126982,-0.0178 0.126981,-0.0356 0.152378,-0.0178 0.126982,-0.0356 0.126981,-0.0178 0.126982,-0.0356 0.126981,-0.0356 0.126982,-0.0178 0.126981,-0.0356 0.152378,-0.0356 0.126981,-0.0356 0.126982,-0.0356 0.126981,-0.0356 0.152378,-0.0356 0.126982,-0.0356 0.126981,-0.0534 0.152378,-0.0356 0.126982,-0.0534 0.126981,-0.0356 0.126982,-0.0533 0.152377,-0.0534 0.126982,-0.0534 0.126981,-0.0533 0.126982,-0.0534 0.152378,-0.0711 0.126981,-0.0533 0.126982,-0.0711 0.126981,-0.0711 0.126982,-0.0711 0.126981,-0.0711 0.126982,-0.0889 0.152377,-0.0711 0.126982,-0.0889 0.126981,-0.0889 0.152378,-0.1067 0.126982,-0.10669 0.126981,-0.1067 0.126982,-0.1067 0.152378,-0.12448 0.126981,-0.12449 0.126982,-0.12448 0.152377,-0.14226 0.126982,-0.14227 0.126981,-0.16005 0.126982,-0.16005 0.152378,-0.17782 0.126981,-0.19562 0.126982,-0.21339 0.152378,-0.19561 0.126981,-0.23118 0.126981,-0.24897 0.126982,-0.24896 0.126981,-0.28453 0.126982,-0.30231 0.126981,-0.3201 0.152378,-0.33788 0.126982,-0.37344 0.126981,-0.39123 0.126982,-0.42679 0.152378,-0.48014 0.126981,-0.49793 0.126982,-0.53349 0.126981,-0.58685 0.152378,-0.65797 0.126981,-0.69354 0.126982,-0.76467 0.152378,-0.8358 0.126981,-0.90694 0.126982,-1.01363 0.126981,-1.08477 0.152378,-1.20925 0.126982,-1.31594 0.126981,-1.45822 0.126981,-1.60047 0.126982,-1.74274 0.126981,-1.92057 0.126982,-2.11618 0.152378,-2.29403 0.126981,-2.48962 0.126982,-2.68524 0.152378,-2.86307 0.126981,-3.00535 0.126982,-3.12982 0.126981,-3.16538 0.152378,-3.11203 0.126981,-2.96977 0.126982,-2.66747 0.152378,-2.22288 0.126981,-1.63604 0.126982,-0.96029 0.126981,-0.19561 0.152378,0.58684 0.126982,1.29816 0.126981,1.95614 0.126982,2.47185 0.126981,2.8275 0.126981,3.05869 0.126982,3.1476 0.152378,3.16539 0.126981,3.07647 0.126982,2.9342 0.126981,2.77417 0.152378,2.59632 0.126982,2.38293 0.126981,2.18731 0.152378,2.02727 0.126981,1.83166 0.126982,1.67161 0.126981,1.52935 0.152378,1.38707 0.126982,1.2626 0.126981,1.13812 0.152378,1.06698 0.126981,0.9425 0.126982,0.87137 0.126982,0.80024 0.126981,0.72911 0.126982,0.67575 0.126981,0.60462 0.152378,0.56907 0.126981,0.53348 0.126982,0.48015 0.126981,0.44457 0.152378,0.40902 0.126982,0.39123 0.126981,0.35565 0.152378,0.3201 0.126981,0.3201 0.126982,0.28452 0.126981,0.26675 0.152378,0.24896 0.126982,0.24897 0.126981,0.19561 0.152378,0.21339 0.126982,0.19562 0.126981,0.19561 0.126982,0.16005 0.126981,0.16005 0.126982,0.16004 0.126981,0.14227 0.152378,0.14226 0.126981,0.12449 0.126982,0.1067 0.126981,0.12448 0.152378,0.12447 0.126982,0.1067 0.126981,0.0889 0.126982,0.0889 0.152377,0.0889 0.126982,0.0889 0.126981,0.0889 0.152378,0.0711 0.126982,0.0711 0.126981,0.0711 0.126982,0.0711 0.152377,0.0711 0.126982,0.0533 0.126981,0.0534 0.126982,0.0711 0.126981,0.0534 0.126982,0.0356 0.126981,0.0711 0.152378,0.0356 0.126982,0.0534 0.126981,0.0356 0.152378,0.0534 0.126982,0.0178 0.126981,0.0534 0.126982,0.0356 0.152377,0.0356 0.126982,0.0356 0.126981,0.0356 0.152378,0.0356 0.126982,0.0356 0.126981,0.0178 0.126982,0.0356 0.152378,0.0356 0.126981,0.0178 0.126982,0.0356 0.126981,0.0178 0.126982,0.0178 0.126981,0.0178 0.126982,0.0356 0.152377,0.0178 0.126982,0.0178 0.126981,0.0178 0.126982,0.0356 0.152378,0.0178 0.126981,0.0178 h 0.126982 l 0.152377,0.0356 0.126982,0.0178 0.126981,0.0178 0.126982,0.0178 h 0.152378 l 0.126981,0.0178 0.126982,0.0178 0.152377,0.0178 0.126982,0.0178 0.126981,0.0178 h 0.126982 0.126981 l 0.126982,0.0178 0.126981,0.0178 0.152378,0.0178 h 0.126982 l 0.126981,0.0178 0.126982,0.0178 h 0.152378 0.126981 l 0.126982,0.0178 h 0.152377 l 0.126982,0.0178 h 0.126981 l 0.126982,0.0178 0.152378,0.0178 h 0.126981 l 0.126982,0.0178 h 0.152377 0.126982 0.126981 0.126982 l 0.126982,0.0178 h 0.126981 l 0.126982,0.0178 h 0.126981 0.152378 l 0.126981,0.0178 h 0.126982 0.152378 l 0.126981,0.0178 h 0.126982 0.126981 l 0.152378,0.0178 h 0.126981 0.126982 0.152378 0.126981 0.126982 0.126981 0.152378 0.126981 l 0.126982,0.0178 h 0.152378 0.126981 0.126982 0.126981 0.126982 l 0.126981,0.0178 h 0.126982 0.152378 0.126981 0.126982 0.126981 0.152378 0.126981 0.126982 0.152378 0.126981 0.126982 0.126981 0.152378 0.126981 0.126982 0.152378 0.126981 0.126982 0.126981 0.126982 0.126981 0.126982 0.126981 0.152378 0.126982 0.126981 l 0.152378,-0.0178 h 0.126981 0.126982 0.126981 0.152378 0.126982 0.126981 l 0.152378,-0.0178 h 0.126981 0.126982 0.126981 0.152378 0.126982 0.126981 0.126982 l 0.126981,-0.0178 h 0.126982 0.126981 0.152378 l 0.126982,-0.0178 h 0.126981 0.152378 l 0.126981,-0.0178 h 0.126982 l 0.126981,-0.0178 h 0.152378 0.126982 l 0.126981,-0.0178 h 0.152378 0.126981 0.126982 l 0.126981,-0.0178 h 0.152378 l 0.126982,-0.0178 h 0.126981 l 0.126982,-0.0178 h 0.126981 l 0.126982,-0.0178 0.126981,-0.0178 h 0.152378 0.126978 l 0.12699,-0.0178 h 0.12698 l 0.15237,-0.0178 0.12699,-0.0178 h 0.12698 l 0.15238,-0.0178 0.12698,-0.0178 h 0.12698 l 0.12698,-0.0178 0.15238,-0.0178 0.12698,-0.0178 0.12698,-0.0178 0.15238,-0.0178 h 0.12698 l 0.12698,-0.0178 0.12698,-0.0178 0.12698,-0.0178 0.12699,-0.0178 0.12698,-0.0178 h 0.15238 l 0.12698,-0.0356 0.12698,-0.0178 0.12698,-0.0178 0.15238,-0.0178 0.12698,-0.0178 0.12698,-0.0356 0.15238,-0.0178 0.12698,-0.0178 0.12698,-0.0356 0.12698,-0.0178 0.15238,-0.0356 0.12698,-0.0178 0.12698,-0.0356 0.15238,-0.0356 0.12698,-0.0178 0.12698,-0.0356 0.12699,-0.0356 0.12698,-0.0356 0.12698,-0.0356 0.12698,-0.0356 0.12698,-0.0356 0.15238,-0.0356 0.12698,-0.0533 0.12698,-0.0356 0.15238,-0.0533 0.12698,-0.0356 0.12698,-0.0534 0.12698,-0.0356 0.15238,-0.0711 0.12698,-0.0533 0.12699,-0.0534 0.15237,-0.0711 0.12699,-0.0533 0.12698,-0.0534 0.12698,-0.0889 0.15238,-0.0711 0.12698,-0.0711 0.12698,-0.0889 0.12698,-0.0711 0.12698,-0.0889 0.12698,-0.0889 0.12698,-0.1067 0.15238,-0.10669 0.12698,-0.1067 0.12699,-0.0889 0.15237,-0.12448 0.12698,-0.14227 0.12699,-0.12447 0.12698,-0.14227 0.15238,-0.14226 0.12698,-0.16005 0.12698,-0.16005 0.15238,-0.17783 0.12698,-0.19561 0.12698,-0.19562 0.12698,-0.21339 0.15238,-0.23118 0.12698,-0.23119 0.12698,-0.26674 0.12698,-0.28453 0.12698,-0.30231 0.12699,-0.30232 0.12698,-0.33787 0.15238,-0.37345 0.12698,-0.409 0.12698,-0.4268 0.12698,-0.46236 0.15238,-0.49792 0.12698,-0.53349 0.12698,-0.58685 0.15238,-0.65797 0.12698,-0.69354 0.12698,-0.76467 0.12698,-0.81802 0.15238,-0.92472 0.12698,-0.99585 0.12698,-1.10255 0.15238,-1.19147 0.12698,-1.31595 0.12698,-1.45821 0.12699,-1.58269 0.12698,-1.76052 0.12698,-1.90279 0.12698,-2.0984 0.15238,-2.3118 0.12698,-2.47184 0.12698,-2.68525 0.12698,-2.84529 0.15238,-3.00534 0.12698,-3.12982 0.12698,-3.16538 0.15238,-3.11204 0.12698,-2.96977 0.12698,-2.68524 0.12699,-2.22288 0.15237,-1.67161 0.12699,-0.97807 0.12698,-0.2134 0.12698,0.55128 0.15238,1.29816 0.12698,1.92057 0.12698,2.45406 0.12698,2.80973 0.15238,3.05869 0.12698,3.14759 0.12698,3.1654 0.12698,3.07647 0.12698,2.9342 0.12699,2.79194 0.15237,2.59632 0.12699,2.40072 0.12698,2.18732 0.12698,2.02727 0.15238,1.84943 0.12698,1.67161 0.12698,1.52935 0.15238,1.38708 0.12698,1.28037 0.12698,1.13812 0.12698,1.04921 0.15238,0.96028 0.12698,0.87137 0.12698,0.80024 0.15238,0.7291 0.12698,0.69354 0.12698,0.62241 0.12698,0.55127 0.12699,0.51571 0.12698,0.49793 0.12698,0.44458 0.15238,0.40901 0.12698,0.39122 0.12698,0.35566 0.12698,0.33788 0.15238,0.30231 0.12698,0.28453 0.12698,0.26675 0.15238,0.26674 0.12698,0.23118 0.12698,0.2134 0.12698,0.2134 0.15238,0.19561 0.12698,0.17784 0.12699,0.17782 0.12698,0.16005 0.15237,0.14227 0.12699,0.16004 0.12698,0.12449 0.12698,0.14226 0.12698,0.1067 0.12698,0.12448 0.12698,0.1067 0.15238,0.1067 0.12698,0.10669 0.12698,0.0889 0.15238,0.0889 0.12698,0.0889 0.12699,0.0889 0.12698,0.0711 0.15237,0.0711 0.12699,0.0711 0.12698,0.0534 0.15238,0.0889 0.12698,0.0533 0.12698,0.0534 0.12698,0.0711 0.15238,0.0534 0.12698,0.0356 0.12698,0.0534 0.12698,0.0534 0.12698,0.0534 0.12699,0.0356 0.12698,0.0534 0.15237,0.0178 0.12699,0.0534 0.12698,0.0356 0.15238,0.0356 0.12698,0.0356 0.12698,0.0356 0.12698,0.0356 0.15238,0.0356 0.12698,0.0178 0.12698,0.0356 0.12698,0.0356 0.15238,0.0178 0.12698,0.0178 0.12698,0.0356 0.15238,0.0178 0.12698,0.0178 0.12698,0.0356 0.12699,0.0178 0.12698,0.0178 0.12698,0.0178 0.12698,0.0356 0.15238,0.0178 0.12698,0.0178 h 0.12698 l 0.12698,0.0356 0.15238,0.0178 0.12698,0.0178 0.12698,0.0178 h 0.15238 l 0.12698,0.0178 0.12698,0.0178 0.12698,0.0178 0.15238,0.0178 0.12698,0.0178 h 0.12699 0.15237 l 0.12699,0.0178 0.12698,0.0178 0.12698,0.0178 h 0.12698 l 0.12698,0.0178 0.12698,0.0178 h 0.15238 0.12698 l 0.12698,0.0178 h 0.12698 l 0.15238,0.0178 h 0.12698 l 0.12699,0.0178 0.12698,0.0178 h 0.15237 l 0.12699,0.0178 h 0.12698 0.15238 0.12698 0.12698 l 0.12698,0.0178 h 0.15238 l 0.12698,0.0178 h 0.12698 0.12698 l 0.12698,0.0178 h 0.12699 0.12698 l 0.15237,0.0178 h 0.12699 0.12698 l 0.15238,0.0178 h 0.12698 0.12698 0.12698 0.15238 0.12698 0.12698 0.15238 0.12698 l 0.12698,0.0178 h 0.12698 0.15238 0.12698 0.12698 0.12699 l 0.12698,0.0178 h 0.12698 0.12698 0.15238 0.12698 0.12698 0.15238 0.12698 0.12698 0.12698 0.15238 0.12698 0.12698 0.12699 0.15237 0.12698 0.12699 0.15237 0.12699 0.12698 0.12698 0.12698 0.12698 0.12698 0.15238 0.12698 0.12698 l 0.12699,-0.0178 h 0.15237 0.12698 0.12699 0.15237 0.12699 0.12698 l 0.12698,-0.0178 h 0.15238 0.12698 0.12698 0.15238 0.12698 0.12698 0.12698 l 0.12698,-0.0178 h 0.12698 0.12699 0.15237 l 0.12699,-0.0178 h 0.12698 0.12698 l 0.15238,-0.0178 h 0.12698 l 0.12698,-0.0178 h 0.12698 0.15238 l 0.12698,-0.0178 h 0.12698 0.15238 0.12698 l 0.12698,-0.0178 h 0.12698 l 0.15238,-0.0178 h 0.12698 l 0.12698,-0.0178 h 0.12699 l 0.12698,-0.0178 0.12698,-0.0178 h 0.12698 0.15238 0.12698 l 0.12698,-0.0178 0.15238,-0.0178 0.12698,-0.0178 h 0.12698 l 0.12698,-0.0178 0.15238,-0.0178 h 0.12698 l 0.12698,-0.0178 0.15238,-0.0178 0.12698,-0.0178 h 0.12699 l 0.12698,-0.0178 0.15237,-0.0178 0.12699,-0.0178 0.12698,-0.0178 0.12698,-0.0178 0.12698,-0.0178 0.12698,-0.0178 h 0.12698 l 0.15238,-0.0356 0.12698,-0.0178 0.12698,-0.0178 0.15238,-0.0178 0.12698,-0.0178 0.12699,-0.0356 0.12698,-0.0178 0.15237,-0.0178 0.12699,-0.0178 0.12698,-0.0356 0.12698,-0.0356 0.15238,-0.0178 0.12698,-0.0356 0.12698,-0.0356 0.15238,-0.0178 0.12698,-0.0356 0.12698,-0.0356 0.12698,-0.0178 0.12698,-0.0534 0.15238,-0.0178 0.12698,-0.0534 0.12698,-0.0356 0.12699,-0.0356 0.12698,-0.0534 0.12698,-0.0356 0.15238,-0.0534 0.12698,-0.0533 0.12698,-0.0356 0.15238,-0.0711 0.12698,-0.0356 0.12698,-0.0711 0.12698,-0.0534 0.15238,-0.0711 0.12698,-0.0534 0.12698,-0.0889 0.15238,-0.0534 0.12698,-0.0889 0.12698,-0.0711 0.12699,-0.0711 0.15237,-0.0889 0.12698,-0.0889 0.12699,-0.1067 0.12698,-0.1067 0.12698,-0.10669 0.12698,-0.1067 0.12698,-0.1067 0.15238,-0.14227 0.12698,-0.12447 0.12698,-0.14228 0.12698,-0.14226 0.15238,-0.16004 0.12698,-0.16005 0.12698,-0.17783 0.15238,-0.17784 0.12698,-0.21339 0.12699,-0.2134 0.12698,-0.21339 0.15238,-0.24897 0.12698,-0.26674 0.12698,-0.26675 0.15238,-0.28453 0.12698,-0.32009 0.12698,-0.33788 0.12698,-0.37345 0.12698,-0.37344 0.12698,-0.44458 0.12698,-0.44457 0.15238,-0.49793 0.12698,-0.55127 0.12699,-0.56906 0.12698,-0.64019 0.15237,-0.67576 0.12699,-0.76467 0.12698,-0.8358 0.15238,-0.88915 0.12698,-0.97807 0.12698,-1.08477 0.12698,-1.19147 0.15238,-1.29816 0.12698,-1.42265 0.12698,-1.58269 0.15238,-1.72495 0.12698,-1.9028 0.12698,-2.08061 0.12698,-2.24067 0.12698,-2.47184 0.12699,-2.64968 0.12698,-2.8275 0.12698,-2.98756 0.15238,-3.11204 0.12698,-3.16539 0.12698,-3.12981 0.15238,-2.98756 0.12698,-2.72081 0.12698,-2.31179 0.12698,-1.74275 0.15238,-1.08476 0.12698,-0.3201 0.12698,0.46236 0.15238,1.17368 0.12698,1.86723 0.12698,2.38293 0.12699,2.77416 0.15237,3.02312 0.12698,3.12982 0.12699,3.16538 0.12698,3.09425 0.12698,2.96978 0.12698,2.79194 0.12698,2.63189 0.15238,2.41849 0.12698,2.22289 0.12698,2.04505 0.15238,1.86722 0.12698,1.70718 0.12698,1.54712 0.12699,1.40487 0.15237,1.29816 0.12698,1.17368 0.12699,1.04921 0.15237,0.97806 0.12699,0.88916 0.12698,0.80023 0.12698,0.74689 0.15238,0.67576 0.12698,0.64019 0.12698,0.56905 0.12698,0.51572 0.12698,0.49792 0.12698,0.46236 0.12699,0.40901 0.15237,0.39123 0.12698,0.35566 0.12699,0.33788 0.12698,0.30231 0.15238,0.30231 0.12698,0.26674 0.12698,0.24897 0.15238,0.24896 0.12698,0.23118 0.12698,0.19562 0.12698,0.19561 0.15238,0.17783 0.12698,0.17783 0.12698,0.16005 0.15238,0.17783 0.12698,0.12448 0.12698,0.14226 0.12698,0.14227 0.12699,0.12448 0.12698,0.1067 0.12698,0.1067 0.15238,0.1067 0.12698,0.1067 0.12698,0.10669 0.12698,0.0889 0.15238,0.0711 0.12698,0.0889 0.12698,0.0711 0.15238,0.0711 0.12698,0.0711 0.12698,0.0711 0.12698,0.0711 0.15238,0.0534 0.12698,0.0534 0.12698,0.0711 0.15238,0.0534 0.12698,0.0533 0.12699,0.0534 0.12698,0.0356 0.12698,0.0534 0.12698,0.0356 0.12698,0.0534 0.12698,0.0356 0.15238,0.0534 0.12698,0.0356 0.12698,0.0356 0.15238,0.0356 0.12698,0.0178 0.12698,0.0356 0.12699,0.0534 0.15237,0.0178 0.12699,0.0356 0.12698,0.0356 h 0.15237 l 0.12699,0.0356 0.12698,0.0356 0.12698,0.0178 0.15238,0.0178 0.12698,0.0356 0.12698,0.0178 0.12698,0.0178 0.12698,0.0178 0.12698,0.0178 0.12699,0.0356 0.15237,0.0178 h 0.12699 l 0.12698,0.0178 0.15237,0.0178 0.12699,0.0356 0.12698,0.0178 h 0.12698 l 0.15238,0.0178 0.12698,0.0178 0.12698,0.0178 0.15238,0.0178 h 0.12698 l 0.12698,0.0178 h 0.12698 l 0.15238,0.0178 0.12698,0.0178 h 0.12698 l 0.12698,0.0178 0.12699,0.0178 0.12698,0.0178 h 0.12698 0.15238 l 0.12698,0.0178 h 0.12698 l 0.12698,0.0178 h 0.15238 l 0.12698,0.0178 h 0.12698 l 0.15238,0.0178 h 0.12698 l 0.12698,0.0178 h 0.12698 0.15238 0.12698 l 0.12699,0.0178 h 0.15237 l 0.12698,0.0178 h 0.12699 0.12698 l 0.15238,0.0178 h 0.12698 0.12698 l 0.12698,0.0178 h 0.12698 0.12698 l 0.12698,0.0178 h 0.15238 0.12698 0.12698 0.15238 0.12698 0.12699 0.12698 0.15238 l 0.12698,0.0178 h 0.12698 0.15238 0.12698 0.12698 0.12698 0.15238 l 0.12698,0.0178 h 0.12698 0.12698 0.12698 0.12699 0.12698 0.15237 0.12699 0.12698 0.12698 0.15238 0.12698 0.12698 0.15238 0.12698 0.12698 0.12698 0.15238 0.12698"
         id="path47"
         style="fill-rule:evenodd;stroke-width:0.836793;stroke-miterlimit:4;stroke-dasharray:none;image-rendering:optimizeQuality;shape-rendering:geometricPrecision;text-rendering:geometricPrecision" />
      <path
         style="fill:#1f1a17;fill-rule:evenodd;stroke-width:1;stroke-miterlimit:4;stroke-dasharray:none;image-rendering:optimizeQuality;shape-rendering:geometricPrecision;text-rendering:geometricPrecision"
         id="path60"
         d="m 75.436945,146.02943 h 2.945971 v -0.7111 h -2.945971 z"
         class="fil0" />
      <path
         style="fill:#1f1a17;fill-rule:evenodd;stroke-width:1;stroke-miterlimit:4;stroke-dasharray:none;image-rendering:optimizeQuality;shape-rendering:geometricPrecision;text-rendering:geometricPrecision"
         id="path62"
         d="m 75.741701,147.52781 -3.352312,-1.85393 3.352312,-1.85393 v 3.70786 l -3.352312,-1.85393 z"
         class="fil0" />
      <text
         xml:space="preserve"
         style="font-style:normal;font-weight:normal;font-size:10.5833px;line-height:1.25;font-family:sans-serif;fill:#000000;fill-opacity:1;stroke:none;stroke-width:1;stroke-miterlimit:4;stroke-dasharray:none"
         x="197.19449"
         y="180.81274"
         id="text978"><tspan
           sodipodi:role="line"
           id="tspan976"
           x="197.19449"
           y="180.81274"
           style="stroke-width:1;stroke-miterlimit:4;stroke-dasharray:none">t</tspan></text>
      <text
         xml:space="preserve"
         style="font-style:normal;font-weight:normal;font-size:10.5833px;line-height:1.25;font-family:sans-serif;fill:#000000;fill-opacity:1;stroke:none;stroke-width:1;stroke-miterlimit:4;stroke-dasharray:none"
         x="38.106544"
         y="178.81013"
         id="text982"><tspan
           sodipodi:role="line"
           id="tspan980"
           x="38.106544"
           y="178.81013"
           style="stroke-width:1;stroke-miterlimit:4;stroke-dasharray:none">0</tspan></text>
      <text
         xml:space="preserve"
         style="font-style:normal;font-weight:normal;font-size:10.5833px;line-height:1.25;font-family:sans-serif;fill:#000000;fill-opacity:1;stroke:none;stroke-width:1;stroke-miterlimit:4;stroke-dasharray:none"
         x="24.361935"
         y="118.31973"
         id="text986"><tspan
           sodipodi:role="line"
           id="tspan984"
           x="24.361935"
           y="118.31973"
           style="stroke-width:1;stroke-miterlimit:4;stroke-dasharray:none">P<tspan
   style="font-size:65%;baseline-shift:sub;stroke-width:1;stroke-miterlimit:4;stroke-dasharray:none"
   id="tspan988">max</tspan></tspan></text>
      <text
         xml:space="preserve"
         style="font-style:normal;font-weight:normal;font-size:10.5833px;line-height:1.25;font-family:sans-serif;fill:#000000;fill-opacity:1;stroke:none;stroke-width:1;stroke-miterlimit:4;stroke-dasharray:none"
         x="87.908958"
         y="108.19076"
         id="text992"><tspan
           sodipodi:role="line"
           id="tspan990"
           x="87.908958"
           y="108.19076"
           style="stroke-width:1;stroke-miterlimit:4;stroke-dasharray:none">T</tspan></text>
      <text
         xml:space="preserve"
         style="font-style:normal;font-weight:normal;font-size:10.5833px;line-height:1.25;font-family:sans-serif;fill:#000000;fill-opacity:1;stroke:none;stroke-width:1;stroke-miterlimit:4;stroke-dasharray:none"
         x="79.450623"
         y="148.28477"
         id="text996"><tspan
           sodipodi:role="line"
           id="tspan994"
           x="79.450623"
           y="148.28477"
           style="stroke-width:1;stroke-miterlimit:4;stroke-dasharray:none">τ</tspan></text>
    </g>
  </g>
</svg>
